<svg version="1.1" viewBox="0.0 0.0 603.1128608923884 153.47769028871392" fill="none" stroke="none" stroke-linecap="square" stroke-miterlimit="10" xmlns:xlink="http://www.w3.org/1999/xlink" xmlns="http://www.w3.org/2000/svg"><clipPath id="p.0"><path d="m0 0l603.11285 0l0 153.47769l-603.11285 0l0 -153.47769z" clip-rule="nonzero"/></clipPath><g clip-path="url(#p.0)"><path fill="#000000" fill-opacity="0.0" d="m0 0l603.11285 0l0 153.47769l-603.11285 0z" fill-rule="evenodd"/><path fill="#000000" fill-opacity="0.0" d="m-15.681103 -8.173228l635.937 0l0 176.15749l-635.937 0z" fill-rule="evenodd"/><path fill="#741b47" d="m9.357716 94.614876q0 -19.765625 8.859375 -31.484379q8.875 -11.71875 24.265625 -11.71875q12.34375 0 20.390625 9.21875l0 -43.125l22.656254 0l0 120.0l-20.390625 0l-1.09375 -8.984375q-8.437504 10.546875 -21.718754 10.546875q-14.921875 0 -23.953125 -11.749992q-9.015625 -11.765625 -9.015625 -32.703125zm22.578125 1.640625q0 11.875 4.140625 18.203125q4.140625 6.328125 12.03125 6.328125q10.46875 0 14.765625 -8.828125l0 -33.359375q-4.21875 -8.828125 -14.609375 -8.828125q-16.328125 0 -16.328125 26.484375zm120.078125 41.249992q-1.5625 -3.046875 -2.265625 -7.578125q-8.203125 9.140625 -21.328125 9.140625q-12.421867 0 -20.593742 -7.1875q-8.15625 -7.1874924 -8.15625 -18.124992q0 -13.4375 9.953125 -20.625q9.96875 -7.1875 28.796867 -7.265625l10.390625 0l0 -4.84375q0 -5.859375 -3.015625 -9.375q-3.0 -3.515625 -9.484375 -3.515625q-5.703125 0 -8.953117 2.734375q-3.234375 2.734375 -3.234375 7.5l-22.578125 0q0 -7.34375 4.53125 -13.59375q4.53125 -6.250004 12.8125 -9.796879q8.28125 -3.5625 18.593742 -3.5625q15.625 0 24.796875 7.859375q9.1875 7.843754 9.1875 22.062504l0 36.640625q0.078125 12.031242 3.359375 18.203117l0 1.328125l-22.8125 0zm-18.671875 -15.703117q5.0 0 9.21875 -2.21875q4.21875 -2.234375 6.25 -5.984375l0 -14.53125l-8.4375 0q-16.953117 0 -18.046867 11.71875l-0.078125 1.328125q0 4.21875 2.96875 6.953125q2.9687424 2.734375 8.124992 2.734375zm82.5 -89.609375l0 20.78125l14.453125 0l0 16.562504l-14.453125 0l0 42.1875q0 4.6875 1.796875 6.71875q1.796875 2.03125 6.875 2.03125q3.75 0 6.640625 -0.546875l0 17.109367q-6.640625 2.03125 -13.671875 2.03125q-23.75 0 -24.21875 -23.984367l0 -45.546875l-12.34375 0l0 -16.562504l12.34375 0l0 -20.78125l22.578125 0zm76.01564 105.3125q-1.5625 -3.046875 -2.265625 -7.578125q-8.203125 9.140625 -21.328125 9.140625q-12.42189 0 -20.593765 -7.1875q-8.15625 -7.1874924 -8.15625 -18.124992q0 -13.4375 9.953125 -20.625q9.968765 -7.1875 28.79689 -7.265625l10.390625 0l0 -4.84375q0 -5.859375 -3.015625 -9.375q-3.0 -3.515625 -9.484375 -3.515625q-5.703125 0 -8.953125 2.734375q-3.234375 2.734375 -3.234375 7.5l-22.57814 0q0 -7.34375 4.53125 -13.59375q4.53125 -6.250004 12.812515 -9.796879q8.28125 -3.5625 18.59375 -3.5625q15.625 0 24.796875 7.859375q9.1875 7.843754 9.1875 22.062504l0 36.640625q0.078125 12.031242 3.359375 18.203117l0 1.328125l-22.8125 0zm-18.671875 -15.703117q5.0 0 9.21875 -2.21875q4.21875 -2.234375 6.25 -5.984375l0 -14.53125l-8.4375 0q-16.953125 0 -18.046875 11.71875l-0.078125 1.328125q0 4.21875 2.96875 6.953125q2.96875 2.734375 8.125 2.734375zm61.640625 15.703117l0 -67.96874l-12.578125 0l0 -16.562504l12.578125 0l0 -7.1875q0 -14.21875 8.15625 -22.0625q8.171875 -7.859374 22.859375 -7.859374q4.6875 0 11.484375 1.562499l-0.234375 17.5q-2.8125 -0.703125 -6.875 -0.703125q-12.734375 0 -12.734375 11.953125l0 6.796875l16.796875 0l0 16.562504l-16.796875 0l0 67.96874l-22.65625 0zm47.65625 -43.046867q0 -12.578125 4.84375 -22.421875q4.84375 -9.843754 13.9375 -15.234379q9.109375 -5.390625 21.140625 -5.390625q17.109375 0 27.921875 10.46875q10.828125 10.468754 12.078125 28.437504l0.15625 5.78125q0 19.453125 -10.859375 31.21875q-10.859375 11.749992 -29.140625 11.749992q-18.28125 0 -29.1875 -11.718742q-10.890625 -11.71875 -10.890625 -31.875l0 -1.015625zm22.578125 1.640625q0 12.03125 4.53125 18.40625q4.53125 6.359375 12.96875 6.359375q8.203125 0 12.8125 -6.28125q4.609375 -6.296875 4.609375 -20.125q0 -11.796875 -4.609375 -18.28125q-4.609375 -6.484375 -12.96875 -6.484375q-8.28125 0 -12.8125 6.453125q-4.53125 6.4375 -4.53125 19.953125zm95.234375 41.406242l-22.65625 0l0 -120.0l22.65625 0l0 120.0zm15.078125 -42.890617q0 -19.765625 8.859375 -31.484379q8.875 -11.71875 24.265625 -11.71875q12.34375 0 20.390625 9.21875l0 -43.125l22.65625 0l0 120.0l-20.390625 0l-1.09375 -8.984375q-8.4375 10.546875 -21.71875 10.546875q-14.921875 0 -23.953125 -11.749992q-9.015625 -11.765625 -9.015625 -32.703125zm22.578125 1.640625q0 11.875 4.140625 18.203125q4.140625 6.328125 12.03125 6.328125q10.46875 0 14.765625 -8.828125l0 -33.359375q-4.21875 -8.828125 -14.609375 -8.828125q-16.328125 0 -16.328125 26.484375z" fill-rule="nonzero"/></g></svg>
